# xmcd
#
# Track frame offsets:
#	150
#	8548
#	24006
#	35202
#	46517
#	59493
#	74512
#	83574
#	93697
#	108278
#	123445
#	138751
#	152300
#	164131
#	185100
#	194283
#	207898
#	218402
#	237922
#	249211
#	262324
#	276049
#	295621
#	306739
#	317256
#	328355
#	338187
#
# Disc length: 4684 seconds
# Revision: 0
# Processed by: cddbd v1.5.2PL0 Copyright (c) Steve Scherf et al.
# Submitted via: dBpowerAMP V12.0
#
DISCID=82124a1b
DTITLE=Various Artist - Chicago Calling - The Roots Of The British Blues-RAB Boom
DYEAR=2015
DGENRE=Blues
TTITLE0=Memphis Slim - Memphis Slim, USA
TTITLE1=Memphis Slim - Caught The Old Coon At Last
TTITLE2=Memphis Slim - Fattening Frogs For Snakes
TTITLE3=Ottilie Patteerson - Mama, He Treats Your Daughter Mean
TTITLE4=Little Brother Montgomery - I Keep Drinking
TTITLE5=Little Brother Montgomery - Old Maid Blues
TTITLE6=Speckled Red - Oh, Red
TTITLE7=Ottilie Patteerson - Lordy, Lordy, It Hurts So Bad
TTITLE8=Ottilie Patteerson - Only The Blues
TTITLE9=James Cotton - Dealing With The Devil
TTITLE10=James Cotton - Rock Me Mama
TTITLE11=James Cotton - Jimmy's Jump
TTITLE12=The Roundhouse Jug Four - Short Leg Shuffle
TTITLE13=Davy Graham - 3/4 AD
TTITLE14=Little Boy Blue - Down The Road Apiece
TTITLE15=Johnny Kidd and The Pirates - I Just Want To Make Love To You
TTITLE16=Alexis Korner's Blues Incorporated - She Fooled Me
TTITLE17=Jimmy Powell - Sugar Babe Pts 1 And 2
TTITLE18=Alexis Korner's Blues Incorporated - Gotta Move
TTITLE19=Alexis Korner's Blues Incorporated - I Wanna Put A Tiger In Your Tank
TTITLE20=Alexis Korner's Blues Incorporated - How Long, How Long Blues
TTITLE21=Alexis Korner's Blues Incorporated - Night Time Is The Right Time
TTITLE22=Blues Incorporated - Up-Town
TTITLE23=Cyril Davies and His R&B All Stars - Country Line Special
TTITLE24=Cyril Davies and His R&B All Stars - Chicago Calling
TTITLE25=Cyril Davies and His R&B All Stars - Preachin' Blues
TTITLE26=Cyril Davies and His R&B All Stars - Sweet Mary
EXTD=
EXTT0=
EXTT1=
EXTT2=
EXTT3=
EXTT4=
EXTT5=
EXTT6=
EXTT7=
EXTT8=
EXTT9=
EXTT10=
EXTT11=
EXTT12=
EXTT13=
EXTT14=
EXTT15=
EXTT16=
EXTT17=
EXTT18=
EXTT19=
EXTT20=
EXTT21=
EXTT22=
EXTT23=
EXTT24=
EXTT25=
EXTT26=
PLAYORDER=
